<svg xmlns="http://www.w3.org/2000/svg" width="338" height="359" xmlns:v="https://vecta.io/nano"><path d="M44.563 4.688c11.193.214 20.193 5.132 27.957 12.816 6.827 7.57 8.783 16.841 10.998 26.448l2.944 12.419.627 2.636c16.16 67.862 35.363 136.488 66.349 199.243l1.215 2.473c2.092 4.149 4.258 7.759 7.347 11.277 4.21-1.508 5.458-3.98 7.563-7.812l1.029-1.872 2.229-4.12 3.653-6.668c26.386-48.358 44.247-102.329 61.036-154.63l.866-2.695 1.597-4.998c1.215-3.797 2.482-7.525 4.029-11.203 4.273 1.475 7.685 3.745 11.313 6.375 10.01 7.052 19.444 11.967 32.066 10.215 9.543-2.148 17.222-7.03 25.004-12.699C315 80 315 80 317 79l2 1c-.61 5.669-2.071 10.683-3.949 16.055l-.894 2.605-2.844 8.215-1.857 5.398L304 128l-.855 2.452-2.406 6.865-.702 2.005c-2.169 6.15-4.556 12.209-6.946 18.276l-4.711 12.461C277.621 199.148 265.899 227.789 253 256l-.876 1.922C213.893 341.74 213.893 341.74 177 357c-10.179 3.565-23.528 3.929-33.625-.062C113.112 341.763 97.535 310.901 83 282l-1.39-2.736C48.877 214.516 31.514 141.965 14 72l-.583-2.323-3.23-13.239-.718-2.952c-2.542-11.074-2.02-20.854 3.905-30.798C15.587 19.396 18.044 16.66 21 14l2.25-2.062c6.665-4.696 13.269-6.544 21.313-7.25z" fill="#3f48cc"/><path d="M305 8c6.933 5.649 12.412 13.012 14 22 .891 14.051-.569 24.507-10.187 35.5-8.78 7.804-17.545 11.894-29.391 11.715-10.738-.953-20.289-6.24-27.629-13.961C243.888 53.317 242.877 42.256 244 30c2.194-9.105 7.691-17.189 15-23 15.435-9.24 31.24-9.713 46 1z" fill="#3aff42"/></svg>